<svg aria-hidden="true" style="position: absolute; width: 0; height: 0; overflow: hidden;" version="1.1" xmlns="http://www.w3.org/2000/svg" xmlns:xlink="http://www.w3.org/1999/xlink">
<defs>
<symbol id="icon-arrow" viewBox="0 0 31 32">
<path stroke-linejoin="miter" stroke-linecap="butt" stroke-miterlimit="4" stroke-width="2.7826" d="M1.391 29.782l27.826-27.826M29.217 1.956h-27.826M29.217 1.956v27.826"></path>
</symbol>
<symbol id="icon-brackets" viewBox="0 0 44 32">
<path d="M0 15.411v-15.411h17.875v11.603c0 12.087-5.958 18.886-17.875 20.397v-6.345c3.011-0.786 5.069-1.934 6.173-3.446 1.167-1.51 1.874-3.776 2.12-6.798h-8.293zM25.645 15.411v-15.411h17.875v11.603c0 12.087-5.958 18.886-17.875 20.397v-6.345c3.009-0.786 5.069-1.934 6.173-3.446 1.167-1.51 1.874-3.776 2.12-6.798h-8.294z"></path>
</symbol>
<symbol id="icon-check" viewBox="0 0 38 32">
<path stroke-linejoin="miter" stroke-linecap="round" stroke-miterlimit="4" stroke-width="4.3636" d="M2.909 18.909l10.461 10.461c0.263 0.263 0.627 0.426 1.029 0.426 0.47 0 0.888-0.223 1.153-0.568l0.003-0.003 20.081-26.316"></path>
</symbol>
<symbol id="icon-close" viewBox="0 0 32 32">
<path d="M24.121 7.152c0.241 0.241 0.39 0.575 0.39 0.943s-0.149 0.701-0.39 0.943l-6.599 6.6 6.6 6.6c0.241 0.241 0.39 0.575 0.39 0.943 0 0.737-0.597 1.334-1.334 1.334-0.368 0-0.702-0.149-0.943-0.391l-6.599-6.6-6.6 6.6c-0.24 0.232-0.566 0.374-0.926 0.374-0.736 0-1.333-0.597-1.333-1.333 0-0.36 0.143-0.687 0.375-0.927l6.6-6.6-6.6-6.6c-0.232-0.24-0.374-0.566-0.374-0.926 0-0.736 0.597-1.333 1.333-1.333 0.36 0 0.687 0.143 0.927 0.375l6.6 6.598 6.6-6.599c0.241-0.241 0.574-0.39 0.942-0.39s0.701 0.149 0.942 0.39l-0-0z"></path>
</symbol>
<symbol id="icon-ellips" viewBox="0 0 32 32">
<path d="M32 16c0 8.837-7.163 16-16 16s-16-7.163-16-16c0-8.837 7.163-16 16-16s16 7.163 16 16z"></path>
</symbol>
<symbol id="icon-faq" viewBox="0 0 16 32">
<path d="M6.132 21.992c0-1.562 0.164-2.832 0.49-3.808 0.324-0.976 1.12-2.22 2.382-3.73l1.368-1.76c0.91-1.274 1.366-2.602 1.366-3.984 0-1.366-0.286-2.434-0.86-3.202-0.56-0.78-1.366-1.172-2.42-1.172-0.99 0-1.818 0.352-2.48 1.054-0.652 0.704-0.978 1.648-0.978 2.832h-3.438c0.026-2.148 0.678-3.86 1.954-5.136s2.922-1.914 4.94-1.914c2.098 0 3.744 0.658 4.942 1.972 1.2 1.316 1.798 3.132 1.798 5.45 0 2.214-0.906 4.434-2.716 6.66l-1.796 2.166c-0.742 1.054-1.114 2.578-1.114 4.57h-3.438zM8.008 26.112c0.65 0 1.14 0.204 1.464 0.606 0.34 0.392 0.508 0.88 0.508 1.466s-0.168 1.074-0.508 1.464c-0.324 0.378-0.814 0.566-1.464 0.566-0.664 0-1.16-0.188-1.484-0.566-0.314-0.39-0.47-0.88-0.47-1.464 0-0.586 0.156-1.074 0.47-1.466 0.324-0.402 0.82-0.604 1.484-0.604z"></path>
</symbol>
<symbol id="icon-hamburger" viewBox="0 0 59 32">
<path d="M58.667 31.971h-58.667v-5.205h58.667v5.205zM58.667 18.957h-58.667v-5.205h58.667v5.208zM58.667 5.944h-58.667v-5.2h58.667v5.203z"></path>
</symbol>
<symbol id="icon-play" viewBox="0 0 27 32">
<path d="M27.429 16l-27.429 15.835v-31.671l27.429 15.835z"></path>
</symbol>
<symbol id="icon-logo" viewBox="0 0 267 32">
<path d="M216.019 5.299h46.101l4.549-5.285h-66.016l-18.32 31.973h42.787l3.072-5.288h-24.464l4.672-8.059h24.464l2.952-5.288h-24.349l4.549-8.053zM180.739 13.355h-18.197l2.952-5.16c1.227-2.139 2.336-2.896 4.179-2.896 1.845 0 2.459 1.512 1.475 3.4h18.565l1.843-3.4c1.352-2.517 1.352-5.285-1.965-5.285h-32.701c-2.952 0-5.288 0.379-7.008 3.272l-5.779 10.069c-1.6 2.896-1.475 5.288 2.459 5.288h18.808l-3.072 5.539c-0.861 1.509-1.968 2.517-4.549 2.517-2.213 0-2.088-1.512-1.107-3.021h-18.44l-2.213 3.776c-1.352 2.392-0.245 4.533 2.952 4.533h32.453c2.952 0 5.533-1.387 7.008-3.904l5.533-9.44c1.229-2.392 0.613-5.288-3.197-5.288z"></path>
<path d="M259.715 6.232c-1.499 0-2.717 1.208-2.717 2.683-0.001 0.025-0.001 0.055-0.001 0.085 0 1.498 1.214 2.712 2.712 2.712s2.712-1.214 2.712-2.712c0-0.030-0-0.060-0.001-0.089l0 0.004c0-1.475-1.211-2.683-2.704-2.683zM259.715 11.101c-0.009 0-0.019 0-0.029 0-1.2 0-2.173-0.973-2.173-2.173 0-0.005 0-0.009 0-0.014v0.001c0-1.192 0.979-2.157 2.203-2.157 1.2 0 2.172 0.972 2.172 2.172s-0.972 2.172-2.172 2.172v0zM138.813 0.013h-27.784c-3.813 0-8.728 0-11.68 5.285l-12.293 21.4c-1.72 2.893-0.245 5.285 2.952 5.285h32.331c3.32 0 5.411-1.005 7.992-5.285l12.293-21.4c1.6-2.768-0.861-5.285-3.813-5.285zM123.2 8.195l-9.221 15.987c-1.227 2.267-2.333 2.517-5.163 2.517-2.827 0-3.565-1.008-2.704-2.517l9.341-15.987c1.355-2.392 2.952-2.896 5.288-2.896s3.688 0.757 2.459 2.896zM90.131 0.013h-35.653l-15.365 26.685h-33.931l-5.181 5.285h73.656c4.549 0 6.027-2.267 7.008-4.027l3.688-6.547c0.984-1.76 0.984-3.776-0.984-4.907 1.973 0 4.672-1.387 6.269-4.28l3.688-6.421c1.848-3.147-0.365-5.789-3.192-5.789zM71.811 21.536l-1.84 3.021c-0.493 1.008-1.355 2.141-3.445 2.141h-9.096l4.675-8.056h8.848c1.6 0 1.6 1.509 0.861 2.893zM79.557 8.195l-1.845 3.021c-0.491 1.008-1.352 2.139-3.44 2.139h-9.099l4.672-8.053h8.853c1.597 0 1.597 1.509 0.859 2.893z"></path>
<path d="M261.101 8.213c0-0.253-0.109-0.523-0.333-0.651-0.188-0.095-0.41-0.15-0.644-0.15-0.034 0-0.068 0.001-0.102 0.003l0.005-0h-1.32v3.019h0.448v-1.389h0.531l0.864 1.389h0.517l-0.92-1.389c0.539-0.016 0.955-0.24 0.955-0.835zM259.648 8.669h-0.493v-0.907h0.784c0.379 0 0.715 0.053 0.715 0.44 0 0.544-0.581 0.467-1.005 0.467z"></path>
</symbol>
</defs>
</svg>
